<svg xmlns="http://www.w3.org/2000/svg" width="212" height="224" viewBox="0 0 212 224" version="1.1"><path d="M 9.200 9.200 C 7.459 10.941, 7.459 213.059, 9.200 214.800 C 10.940 216.540, 201.060 216.540, 202.800 214.800 C 204.541 213.059, 204.541 10.941, 202.800 9.200 C 201.060 7.460, 10.940 7.460, 9.200 9.200 M 87.500 31.989 C 50.727 59.226, 46.195 63.252, 41.755 72.626 L 38.500 79.500 38 131.346 C 37.725 159.862, 37.725 183.317, 38 183.468 C 38.275 183.620, 45.025 179.135, 53 173.503 L 67.500 163.263 68.042 132.882 C 68.657 98.349, 69.167 95.777, 77.399 85.678 C 81.202 81.014, 96 69.105, 113.338 56.755 L 120 52.011 120 30.505 C 120 18.677, 119.662 9.006, 119.250 9.014 C 118.838 9.022, 104.550 19.361, 87.500 31.989 M 152 43.148 C 148.425 45.915, 135.413 55.451, 123.084 64.339 C 89.116 88.829, 82.198 96.139, 79.115 110.799 C 77.799 117.053, 77.529 212, 78.826 212 C 79.281 212, 84.568 208.593, 90.576 204.429 C 96.584 200.265, 103.845 195.263, 106.711 193.314 L 111.922 189.768 115.204 193.051 C 117.010 194.856, 121.415 197.720, 124.993 199.416 C 130.468 202.011, 132.692 202.500, 139.021 202.500 C 145.505 202.500, 147.464 202.046, 153.229 199.208 C 163.836 193.986, 170.976 184.029, 172.493 172.341 C 173.673 163.251, 169.129 150.904, 162.363 144.818 C 160.580 143.214, 160.497 140.703, 160.568 90.568 C 160.620 53.782, 160.321 38.017, 159.571 38.058 C 158.982 38.090, 155.575 40.380, 152 43.148 M 137.250 141.662 C 136.338 142.030, 136 145.761, 136 155.461 C 136 166.371, 136.284 168.991, 137.584 170.070 C 138.732 171.022, 139.626 171.095, 140.834 170.335 C 142.221 169.462, 142.547 167.147, 142.781 156.532 C 143.103 141.910, 142.259 139.641, 137.250 141.662 M 123.818 151.998 C 118.967 155.997, 115 164.096, 115 170 C 115 175.970, 118.949 183.945, 124.081 188.337 C 132.938 195.918, 145.697 195.882, 154.143 188.252 C 160.154 182.821, 162.444 177.756, 162.393 170 C 162.342 162.187, 159.843 156.667, 154.279 152.074 C 150.228 148.731, 148.338 148.509, 146.656 151.181 C 145.798 152.543, 146.460 153.784, 150.149 157.729 C 156.756 164.792, 157.586 171.889, 152.738 179.868 C 150.426 183.673, 144.204 186.945, 139.218 186.978 C 128.166 187.052, 119.480 175.164, 122.936 164.694 C 123.563 162.793, 126.104 159.392, 128.583 157.137 C 132.471 153.599, 132.941 152.758, 132.010 151.018 C 130.504 148.206, 128.065 148.498, 123.818 151.998" stroke="none" fill="#ffffff00" fill-rule="evenodd"/><path d="M 8.094 1.296 C 6.220 1.958, 3.745 3.770, 2.594 5.323 C 0.505 8.139, 0.499 8.401, 0.232 109.938 C -0.059 220.078, -0.185 217.316, 5.323 221.404 C 8.144 223.498, 8.227 223.500, 105.867 223.500 C 198.343 223.500, 203.736 223.403, 206.340 221.697 C 207.853 220.706, 209.569 218.681, 210.153 217.197 C 210.737 215.714, 211.617 213.719, 212.108 212.764 C 213.149 210.737, 213.349 9.318, 212.309 10.358 C 211.928 10.738, 211.141 9.618, 210.559 7.868 C 209.976 6.119, 208.230 3.745, 206.677 2.594 C 203.863 0.506, 203.565 0.499, 107.677 0.296 C 34.818 0.142, 10.674 0.384, 8.094 1.296 M 9.200 9.200 C 7.459 10.941, 7.459 213.059, 9.200 214.800 C 10.940 216.540, 201.060 216.540, 202.800 214.800 C 204.541 213.059, 204.541 10.941, 202.800 9.200 C 201.060 7.460, 10.940 7.460, 9.200 9.200 M 0.481 112 C 0.481 167.825, 0.602 190.662, 0.750 162.750 C 0.897 134.837, 0.897 89.162, 0.750 61.250 C 0.602 33.337, 0.481 56.175, 0.481 112 M 160.320 44 C 160.320 47.575, 160.502 49.038, 160.723 47.250 C 160.945 45.462, 160.945 42.538, 160.723 40.750 C 160.502 38.962, 160.320 40.425, 160.320 44 M 49.437 61.250 L 46.500 64.500 49.750 61.563 C 51.538 59.948, 53 58.485, 53 58.313 C 53 57.540, 52.175 58.221, 49.437 61.250 M 160.402 85 C 160.402 93.525, 160.556 97.013, 160.743 92.750 C 160.931 88.487, 160.931 81.513, 160.743 77.250 C 160.556 72.987, 160.402 76.475, 160.402 85 M 160.360 124 C 160.360 129.225, 160.529 131.363, 160.735 128.750 C 160.941 126.138, 160.941 121.862, 160.735 119.250 C 160.529 116.638, 160.360 118.775, 160.360 124 M 127.862 136.612 C 119.877 139.380, 112.693 145.891, 108.602 154.069 C 105.493 160.283, 105 162.229, 105 168.279 C 105 174.239, 105.525 176.381, 108.501 182.569 C 112.832 191.574, 116.629 195.452, 124.993 199.416 C 130.468 202.011, 132.692 202.500, 139.021 202.500 C 145.505 202.500, 147.464 202.046, 153.229 199.208 C 163.836 193.986, 170.976 184.029, 172.493 172.341 C 174.191 159.261, 165.966 144.555, 153.555 138.483 C 146.308 134.938, 135.056 134.118, 127.862 136.612 M 137.250 141.662 C 136.338 142.030, 136 145.761, 136 155.461 C 136 166.371, 136.284 168.991, 137.584 170.070 C 138.732 171.022, 139.626 171.095, 140.834 170.335 C 142.221 169.462, 142.547 167.147, 142.781 156.532 C 143.103 141.910, 142.259 139.641, 137.250 141.662 M 123.818 151.998 C 118.967 155.997, 115 164.096, 115 170 C 115 175.970, 118.949 183.945, 124.081 188.337 C 132.938 195.918, 145.697 195.882, 154.143 188.252 C 160.154 182.821, 162.444 177.756, 162.393 170 C 162.342 162.187, 159.843 156.667, 154.279 152.074 C 150.228 148.731, 148.338 148.509, 146.656 151.181 C 145.798 152.543, 146.460 153.784, 150.149 157.729 C 156.756 164.792, 157.586 171.889, 152.738 179.868 C 150.426 183.673, 144.204 186.945, 139.218 186.978 C 128.166 187.052, 119.480 175.164, 122.936 164.694 C 123.563 162.793, 126.104 159.392, 128.583 157.137 C 132.471 153.599, 132.941 152.758, 132.010 151.018 C 130.504 148.206, 128.065 148.498, 123.818 151.998" stroke="none" fill="#df0225" fill-rule="evenodd"/><path d="M 98.500 24.091 C 87.500 32.335, 74 42.302, 68.500 46.239 C 53.957 56.648, 43.820 67.016, 40.867 74.500 C 38.502 80.496, 38.500 80.537, 38.207 131.750 C 38.047 159.938, 38.162 183, 38.465 183 C 38.767 183, 45.537 178.467, 53.507 172.927 L 68 162.854 68.012 134.677 C 68.024 104.961, 68.504 100.785, 72.891 92.205 C 77.007 84.154, 85.383 76.700, 111.250 58.069 L 120 51.767 120 30.383 C 120 18.623, 119.662 9.023, 119.250 9.051 C 118.838 9.078, 109.500 15.847, 98.500 24.091 M 151.500 43.694 C 147.650 46.739, 135.950 55.334, 125.500 62.794 C 88.177 89.439, 82.050 95.919, 79.008 111.960 C 77.946 117.558, 77.547 212, 78.585 212 C 79.107 212, 106.002 193.834, 110.160 190.673 C 111.678 189.519, 111.529 188.814, 108.425 182.455 C 105.542 176.551, 105.027 174.425, 105.015 168.384 C 105.002 162.197, 105.470 160.330, 108.602 154.069 C 117.051 137.180, 136.749 130.261, 153.311 138.364 C 156.275 139.814, 158.992 141, 159.350 141 C 159.707 141, 160 117.825, 160 89.500 C 160 61.175, 159.662 38.036, 159.250 38.080 C 158.838 38.123, 155.350 40.650, 151.500 43.694" stroke="none" fill="#ffffff" fill-rule="evenodd"/></svg>
