<svg xmlns="http://www.w3.org/2000/svg" width="212" height="224" viewBox="0 0 212 224" version="1.1"><path d="M 114.500 12.750 C 29.666 75.338, 37.724 62.089, 38.213 138.187 L 38.500 182.874 52.698 173.187 L 66.895 163.500 66.968 138 C 67.099 91.893, 69.052 88.021, 105.298 62 L 119.925 51.500 119.962 30.250 C 119.983 18.563, 119.888 9.014, 119.750 9.030 C 119.612 9.047, 117.250 10.721, 114.500 12.750 M 151 44.666 C 146.325 48.210, 134.850 56.575, 125.500 63.255 C 93.214 86.324, 85.495 93.447, 81.282 104.065 C 79.366 108.893, 77.506 211.002, 79.333 211.001 C 86.196 210.996, 109.039 190.586, 106.937 186.337 C 92.479 157.115, 123.537 123.757, 153.880 135.917 C 160.756 138.673, 160.056 144.405, 159.759 87.769 L 159.500 38.223 151 44.666" stroke="none" fill="#ffffff" fill-rule="evenodd"/><path d="M 5.898 2.285 C -0.086 6.308, 0.113 2.528, 0.113 112 C 0.113 219.996, -0.008 217.453, 5.323 221.406 L 8.147 223.500 105.867 223.500 C 214.123 223.500, 207.514 223.899, 210.153 217.197 C 210.737 215.714, 211.617 213.719, 212.108 212.764 C 213.149 210.737, 213.349 9.318, 212.309 10.358 C 211.928 10.738, 211.141 9.592, 210.559 7.809 C 209.967 5.999, 208.001 3.561, 206.102 2.285 L 202.704 0 106 0 L 9.296 0 5.898 2.285 M 9.200 9.200 C 7.459 10.941, 7.459 213.059, 9.200 214.800 C 10.940 216.540, 201.060 216.540, 202.800 214.800 C 204.541 213.059, 204.541 10.941, 202.800 9.200 C 201.019 7.419, 119.576 7.468, 120.601 9.250 C 120.997 9.938, 120.952 10.166, 120.502 9.759 C 120.052 9.351, 118.968 9.576, 118.092 10.259 C 116.683 11.357, 116.658 11.298, 117.872 9.750 C 119.622 7.520, 11.428 6.972, 9.200 9.200 M 0.481 112 C 0.481 167.825, 0.602 190.662, 0.750 162.750 C 0.897 134.837, 0.897 89.162, 0.750 61.250 C 0.602 33.337, 0.481 56.175, 0.481 112 M 156 40.151 L 152.500 43.248 156.240 40.580 L 159.981 37.913 160.250 86.706 L 160.519 135.500 160.760 86.250 C 160.892 59.162, 160.662 37.012, 160.250 37.027 C 159.838 37.042, 157.925 38.447, 156 40.151 M 37.328 97.500 C 37.333 101.350, 37.513 102.802, 37.730 100.728 C 37.946 98.653, 37.943 95.503, 37.722 93.728 C 37.501 91.952, 37.324 93.650, 37.328 97.500 M 67.438 136.500 C 67.437 151.350, 67.576 157.564, 67.747 150.310 C 67.918 143.055, 67.918 130.905, 67.748 123.310 C 67.578 115.714, 67.438 121.650, 67.438 136.500 M 78.463 161.500 C 78.463 188.450, 78.592 199.331, 78.749 185.681 C 78.907 172.030, 78.906 149.980, 78.749 136.681 C 78.592 123.381, 78.463 134.550, 78.463 161.500 M 37.419 135 C 37.419 145.725, 37.566 150.113, 37.746 144.750 C 37.925 139.387, 37.925 130.613, 37.746 125.250 C 37.566 119.888, 37.419 124.275, 37.419 135 M 137.962 133.344 C 137.708 133.584, 135.517 134.051, 133.094 134.382 C 110.364 137.491, 94.471 172.199, 108.203 188.744 C 108.992 189.696, 108.777 190.598, 107.388 192.160 C 105.522 194.259, 105.524 194.268, 107.586 193.004 C 109.470 191.848, 110.128 192.180, 114.389 196.442 C 128.566 210.618, 152.460 210.592, 166.667 196.385 C 184.767 178.286, 177.959 145.372, 154.197 136.095 C 149.598 134.300, 138.876 132.483, 137.962 133.344 M 129 171.016 L 129 191.032 144.110 180.926 C 152.421 175.368, 158.833 170.469, 158.360 170.039 C 156.885 168.698, 130.082 151, 129.526 151 C 129.237 151, 129 160.007, 129 171.016 M 37.206 174.191 C 37.013 182.326, 37.906 185.579, 39.585 182.862 C 40.028 182.145, 39.876 181.958, 39.194 182.380 C 38.415 182.862, 37.978 180.422, 37.745 174.285 L 37.411 165.500 37.206 174.191" stroke="none" fill="#086e3c" fill-rule="evenodd"/><path d="M 9.200 9.200 C 7.459 10.941, 7.459 213.059, 9.200 214.800 C 10.940 216.540, 201.060 216.540, 202.800 214.800 C 204.541 213.059, 204.541 10.941, 202.800 9.200 C 201.444 7.844, 119.905 7.400, 120.118 8.750 C 120.184 9.162, 120.167 19.175, 120.082 31 L 119.926 52.500 111.268 58.500 C 69.860 87.195, 68.971 88.737, 68.090 133.460 L 67.500 163.420 53 173.609 C 35.086 186.198, 37.086 191.382, 37.421 133.233 C 37.826 62.769, 32.979 72.118, 91.459 29 C 104.513 19.375, 116.163 10.727, 117.347 9.783 C 119.388 8.156, 116.672 8.065, 64.950 8.033 C 23.818 8.008, 10.105 8.295, 9.200 9.200 M 150.598 44.027 C 145.702 47.809, 133.327 56.887, 123.098 64.202 C 76.011 97.871, 78.597 92.274, 78.208 161.349 L 77.915 213.197 93.425 202.599 C 111.618 190.167, 108.892 190.945, 114.527 196.580 C 132.173 214.226, 163.292 208.776, 173.814 186.196 C 180.772 171.265, 175.055 147.662, 162.918 141.215 L 160.500 139.931 160.800 88.465 C 160.966 60.159, 160.741 37.034, 160.300 37.075 C 159.860 37.117, 155.494 40.245, 150.598 44.027 M 129 171.016 L 129 191.032 144.110 180.926 C 152.421 175.368, 158.833 170.469, 158.360 170.039 C 156.885 168.698, 130.082 151, 129.526 151 C 129.237 151, 129 160.007, 129 171.016" stroke="none" fill="#f9f9f900" fill-rule="evenodd"/></svg>
