<?xml version="1.0" encoding="UTF-8" standalone="no"?>
<svg
   width="225"
   height="225"
   fill="none"
   id="svg712272324_2169"
   version="1.1"
   sodipodi:docname="twingate-down.svg"
   inkscape:version="1.2.2 (b0a8486541, 2022-12-01)"
   xmlns:inkscape="http://www.inkscape.org/namespaces/inkscape"
   xmlns:sodipodi="http://sodipodi.sourceforge.net/DTD/sodipodi-0.dtd"
   xmlns="http://www.w3.org/2000/svg"
   xmlns:svg="http://www.w3.org/2000/svg">
  <defs
     id="defs7" />
  <sodipodi:namedview
     id="namedview5"
     pagecolor="#ffffff"
     bordercolor="#000000"
     borderopacity="0.25"
     inkscape:showpageshadow="true"
     inkscape:pageopacity="0.0"
     inkscape:pagecheckerboard="true"
     inkscape:deskcolor="#d1d1d1"
     showgrid="false"
     showborder="true"
     borderlayer="true"
     shape-rendering="auto"
     inkscape:zoom="0.36151862"
     inkscape:cx="1291.773"
     inkscape:cy="1308.3697"
     inkscape:window-width="3840"
     inkscape:window-height="2083"
     inkscape:window-x="0"
     inkscape:window-y="0"
     inkscape:window-maximized="1"
     inkscape:current-layer="svg712272324_2169" />
  <path
     fill-rule="evenodd"
     clip-rule="evenodd"
     d="m 45.872002,95.813718 v 97.684322 c 0,0 14.600911,-10.0114 30.934127,-21.48518 v -53.70162 c 0,-26.400848 7.952891,-34.916187 29.471801,-50.911924 l 29.51675,-21.93512 V 0.01916395 c 0,0 -42.700337,31.67654505 -60.450881,44.88263205 C 53.824891,60.897532 45.872002,69.424098 45.872002,95.813718 Z M 90.867093,224.99457 v -97.68432 c 0,-26.40085 7.952889,-34.91619 29.471797,-50.911925 17.75054,-13.206037 60.45088,-44.882582 60.45088,-44.882582 v 85.231927 c 0,2.45222 0.0102,4.78071 0.0357,7.01923 0.20257,23.61115 0.3036,36.19855 -23.84739,54.45532 -19.93274,15.09585 -66.108967,46.77235 -66.108967,46.77235 z"
     fill="#ffffff"
     id="path2"
     sodipodi:nodetypes="sccsccccscsccsccc"
     style="stroke-width:11.2488" />
  <ellipse
     style="fill:#d40000;stroke:#000000;stroke-width:11.4113;stroke-dasharray:none;stroke-opacity:1"
     id="path400"
     cx="160.3584"
     cy="158.51846"
     rx="55.706001"
     ry="54.801094" />
</svg>
